<svg width="70" height="70" viewBox="0 0 70 70" fill="none" xmlns="http://www.w3.org/2000/svg">
<path d="M33.9004 0H36.0876C37.9058 0 39.3685 1.46289 39.3685 3.28125V4.74414C50.3594 6.57617 59.04 15.2578 60.8718 26.25H61.2409C63.6605 26.25 65.6154 28.2051 65.6154 30.625C65.6154 33.0449 63.6605 35 61.2409 35H8.74707C6.32743 35 4.37258 33.0449 4.37258 30.625C4.37258 28.2051 6.32743 26.25 8.74707 26.25H9.11616C10.948 15.2578 19.6286 6.57617 30.6195 4.74414V3.28125C30.6195 1.46289 32.0822 0 33.9004 0ZM8.74707 39.375H17.496V56.875H22.9641V39.375H31.7131V56.875H38.2748V39.375H47.0238V56.875H52.4919V39.375H61.2409V57.4629C61.3229 57.5039 61.4049 57.5586 61.487 57.6133L68.0487 61.9883C69.6481 63.0547 70.3726 65.0508 69.8122 66.8965C69.2517 68.7422 67.5429 70 65.6154 70H4.37258C2.44507 70 0.749958 68.7422 0.189476 66.8965C-0.371005 65.0508 0.339849 63.0547 1.95294 61.9883L8.51467 57.6133C8.59669 57.5586 8.67871 57.5176 8.76074 57.4629L8.74707 39.375Z" fill="#327DC3"/>
</svg>
