<svg width="80" height="50" viewBox="0 0 80 50" fill="none" xmlns="http://www.w3.org/2000/svg">
<path d="M54.5455 21.4286C60.5818 21.4286 65.4182 16.6429 65.4182 10.7143C65.4182 4.78571 60.5818 0 54.5455 0C48.5091 0 43.6364 4.78571 43.6364 10.7143C43.6364 16.6429 48.5091 21.4286 54.5455 21.4286ZM25.4545 21.4286C31.4909 21.4286 36.3273 16.6429 36.3273 10.7143C36.3273 4.78571 31.4909 0 25.4545 0C19.4182 0 14.5455 4.78571 14.5455 10.7143C14.5455 16.6429 19.4182 21.4286 25.4545 21.4286ZM25.4545 28.5714C16.9818 28.5714 0 32.75 0 41.0714V50H50.9091V41.0714C50.9091 32.75 33.9273 28.5714 25.4545 28.5714ZM54.5455 28.5714C53.4909 28.5714 52.2909 28.6429 51.0182 28.75C55.2364 31.75 58.1818 35.7857 58.1818 41.0714V50H80V41.0714C80 32.75 63.0182 28.5714 54.5455 28.5714Z" fill="#327DC3"/>
</svg>
