<svg width="498" height="621" viewBox="0 0 498 621" fill="none" xmlns="http://www.w3.org/2000/svg">
<path d="M272.942 0.455819C272.03 0.621624 248.98 0.787429 221.701 0.787429C165.113 0.828881 169.176 0.580173 165.528 4.31079C162.004 7.91704 162.004 7.9585 161.755 27.6478L161.507 44.7672H139.618H117.687V28.8085C117.687 15.9171 117.563 12.5596 117.107 11.399C116.195 9.24349 113.334 6.4248 110.93 5.34707L108.774 4.35224H60.6429H12.5534L10.066 5.59577C8.03464 6.67351 7.16405 7.50253 4.84249 10.5699C3.3086 12.6425 1.73325 14.9638 1.31869 15.7513C0.613925 17.1192 0.572469 20.8498 0.448099 82.0733C0.32373 156.727 -0.0908351 149.307 4.55229 153.825C6.12764 155.359 8.28338 157.059 9.36125 157.556L11.3512 158.551L35.9349 158.675C54.5074 158.8 60.4771 158.924 60.4771 159.297C60.4771 159.794 52.6833 255.298 34.9814 472.13C28.224 554.576 25.4878 586.369 25.1147 586.494C23.5394 587.033 17.1965 590.597 14.1287 592.753C9.48561 595.945 4.09627 600.421 2.47947 602.411C0.572469 604.857 -0.173748 607.219 0.0335345 610.245C0.240817 613.313 1.1114 615.344 3.10132 617.375C5.46434 619.82 7.57862 620.691 10.9366 620.691C14.7091 620.691 16.6161 619.82 20.9691 616.09C25.5293 612.111 28.7214 609.996 33.8206 607.592C44.3505 602.618 52.8906 600.587 65.3275 599.965C81.2054 599.178 99.5291 604.235 110.391 612.359C114.619 615.51 117.563 616.629 120.34 616.214C123.076 615.8 126.269 613.976 129.253 611.199C138.415 602.66 147.163 598.224 160.885 595.281C185.344 590.058 213.534 597.23 227.754 612.359C233.807 618.784 236.874 620.318 241.725 619.323C245.249 618.577 247.529 616.836 249.809 613.147C253.872 606.556 256.359 603.82 262.743 599.053C274.766 590.1 294.25 585.043 311.289 586.494C322.98 587.488 332.017 589.81 340.226 593.955C343.998 595.862 352.414 601.582 353.865 603.24C354.86 604.401 355.233 605.271 355.44 607.136C356.186 613.478 360.705 617.624 366.882 617.624C372.023 617.624 375.546 614.888 379.858 607.551C381.806 604.276 382.884 602.908 385.745 600.421C387.693 598.763 390.305 596.691 391.549 595.862C394.658 593.789 403.198 589.768 407.261 588.442C419.822 584.338 436.612 583.509 450.417 586.328C459.745 588.235 465.922 590.887 475.581 597.271C481.675 601.25 483.126 601.872 486.443 601.872C493.988 601.831 499.46 593.126 496.309 586.121C494.361 581.768 486.235 575.716 475.581 570.701C473.218 569.582 471.311 568.587 471.311 568.504C471.311 568.379 466.17 538.037 459.91 501.063C453.65 464.047 439.68 381.268 428.818 317.102C417.956 252.935 407.344 190.012 405.188 177.245C403.032 164.52 401.249 154.033 401.249 153.95C401.249 153.867 413.686 153.743 428.942 153.66C453.526 153.535 456.884 153.452 459.33 152.789C464.263 151.504 467.207 149.017 468.575 144.955C469.155 143.172 469.238 136.416 469.238 76.9334C469.238 2.03097 469.57 8.53881 465.756 4.76675C464.595 3.60611 462.522 2.11387 461.154 1.4092L458.667 0.207112L404.359 0.0827581L350.051 -0.000144407L347.48 1.24339C344.081 2.94289 340.557 6.71496 339.687 9.61655C339.189 11.3575 339.065 14.4663 339.065 26.4043V41.0366H313.61H288.115L287.99 24.9535C287.866 9.07768 287.866 8.91187 286.871 6.71496C284.549 1.53355 279.202 -0.870621 272.942 0.455819ZM446.437 76.8919V130.986H416.92C382.511 130.986 384.004 130.82 380.024 134.675C378.117 136.582 377.536 137.452 376.997 139.442C376.127 142.385 375.961 140.768 380.107 165.307C381.931 175.96 396.523 262.428 412.609 357.517C428.694 452.565 443.079 537.54 444.53 546.286C446.022 555.074 447.183 562.286 447.1 562.369C447.017 562.452 443.784 562.328 439.928 562.079C424.589 561.084 408.587 563.405 395.653 568.587C390.512 570.618 381.848 574.97 378.739 577.084C375.961 578.95 370.447 583.426 369.162 584.794L368.416 585.665L365.638 583.468C357.306 576.753 346.941 571.281 336.536 568.131L331.81 566.721L331.561 485.726C331.395 428.067 331.188 403.445 330.856 400.212C328.701 380.191 319.995 361.123 306.231 346.284C286.622 325.102 258.39 313.827 229.951 315.817C222.904 316.314 218.136 317.06 212.084 318.594C194.63 322.988 178.048 332.978 165.735 346.449C157.817 355.154 153.671 361.455 148.945 371.983C145.546 379.61 143.432 386.284 142.146 393.704C141.317 398.512 141.276 399.631 141.317 488.005C141.317 573.271 141.317 577.457 140.613 577.706C135.016 579.696 125.895 584.628 121.211 588.193L118.475 590.266L115.49 588.608C106.287 583.551 93.6838 579.613 81.6199 577.996C74.6138 577.084 61.7208 577.167 54.5488 578.162C51.6469 578.576 49.2009 578.867 49.1595 578.825C49.0351 578.701 49.9886 567.094 69.4317 329.537C77.3084 233.205 83.7757 152.996 83.8171 151.297C83.8586 146.157 81.6614 140.603 78.5936 138.281C75.5258 135.919 75.816 135.96 48.4133 135.96H23.1663V81.4516V26.9432H59.0261H94.8445L94.9689 42.7775C95.0933 58.5705 95.0933 58.6534 96.0882 60.6845C97.3319 63.213 99.4877 65.3685 101.892 66.4877C103.799 67.3581 104.048 67.3581 136.342 67.3581H168.886L173.861 65.7001C178.379 64.2078 179.043 63.8762 180.991 61.928C184.391 58.5705 184.432 58.2389 184.432 39.5029V23.6271H224.852H265.231L265.355 38.8397L265.479 54.0937L266.889 56.7052C268.464 59.5653 270.703 61.6793 273.605 62.9643C275.388 63.7933 276.217 63.8348 313.196 63.8348C354.362 63.8348 352.787 63.9177 355.979 61.4721C357.845 60.0627 359.669 57.1197 360 55.0057C360.166 54.0523 360.622 51.8554 361.078 50.073C361.783 47.3372 361.866 45.3475 361.866 34.8604V22.798H404.151H446.437V76.8919ZM248.897 339.444C271.118 343.341 290.353 357.517 300.676 377.621C303.661 383.465 305.029 387.03 306.48 392.875C308.884 402.45 308.802 398.844 308.802 484.565C308.802 527.882 308.76 563.322 308.719 563.322C308.636 563.322 305.444 563.53 301.547 563.737C292.882 564.193 287.078 565.022 279.782 566.804C264.153 570.701 251.26 577.665 240.937 587.862L237.952 590.805L236.377 589.561C227.049 582.307 212.54 575.799 199.522 573.105C190.816 571.281 177.094 570.535 167.974 571.322L164.118 571.696L164.035 489.249C163.953 443.943 163.953 405.144 163.994 403.113C164.284 393.082 168.554 381.517 176.224 369.869C180.121 364.025 189.614 354.367 194.838 350.968C211.503 340.107 230.076 336.17 248.897 339.444Z" fill="black"/>
<path d="M412.567 36.4358C409.416 36.8503 406.597 38.4254 404.69 40.954C400.586 46.3426 402.576 54.6743 408.753 57.8246C410.619 58.8195 414.889 59.234 419.407 58.8609C424.092 58.4879 426.206 57.6174 428.486 54.9645C431.264 51.8142 431.927 46.3012 429.937 42.4877C428.818 40.2493 425.75 37.4721 423.802 36.8918C421.687 36.27 415.801 36.0213 412.567 36.4358Z" fill="black"/>
<path d="M383.713 68.3946C374.717 70.0112 371.235 81.2031 377.785 87.5451C380.728 90.4052 381.433 90.571 390.471 90.571H398.555L400.752 89.369C404.524 87.2549 406.597 83.8974 406.639 79.7523C406.639 75.3584 404.027 71.089 400.089 69.1407C398.347 68.3117 397.477 68.1874 391.922 68.1045C388.522 68.063 384.833 68.1874 383.713 68.3946Z" fill="black"/>
<path d="M411.697 90.2808C407.675 91.7316 404.69 95.5037 404.276 99.6902C403.82 104.126 406.514 109.058 410.536 111.214C412.028 112.001 412.857 112.126 417.832 112.126C423.097 112.126 423.553 112.043 425.543 111.006C429.606 108.892 431.637 105.576 431.637 101.141C431.637 96.7057 429.564 93.0995 425.792 90.9026C424.051 89.8663 423.429 89.7419 418.91 89.659C414.806 89.5347 413.479 89.659 411.697 90.2808Z" fill="black"/>
<path d="M221.743 132.603C219.711 133.224 218.178 134.261 216.478 136.084C214.446 138.323 213.659 140.354 213.742 143.629C213.825 148.105 216.105 151.753 220.002 153.66L222.365 154.82H278.538C331.147 154.82 334.795 154.779 336.246 154.116C342.671 151.09 345.076 144.002 341.842 137.784C340.889 135.919 337.738 133.307 335.831 132.727C333.966 132.147 223.567 132.064 221.743 132.603Z" fill="black"/>
<path d="M118.516 135.09C114.827 135.836 110.847 139.235 109.893 142.509C108.235 148.064 110.681 153.95 115.697 156.437L117.853 157.515H151.35C183.769 157.515 184.888 157.473 187.044 156.686C191.231 155.11 194.05 150.965 194.05 146.447C194.008 141.846 191.438 137.742 187.334 135.794C185.468 134.924 185.178 134.924 152.718 134.882C134.726 134.841 119.304 134.924 118.516 135.09Z" fill="black"/>
<path d="M344.205 179.442C340.599 180.064 337.075 183.173 335.831 186.904C335.541 187.691 335.334 189.391 335.334 190.717C335.334 195.443 338.94 200.168 343.542 201.453C344.371 201.66 348.641 201.868 352.994 201.868C361.783 201.868 363.856 201.494 366.758 199.422C369.411 197.474 370.696 194.904 370.903 191.132C371.069 188.189 370.986 187.816 369.66 185.287C368.167 182.385 365.68 180.313 362.778 179.484C361.12 179.028 346.941 178.986 344.205 179.442Z" fill="black"/>
<path d="M303.951 215.961C302.003 216.417 299.018 218.282 298.023 219.65C294.54 224.583 294.748 230.22 298.645 234.531C301.754 237.972 302.542 238.137 315.434 238.137C325.757 238.137 326.545 238.096 328.327 237.267C330.608 236.189 332.805 234.075 333.924 231.878C335.168 229.308 335.002 224.251 333.592 221.516C332.971 220.313 331.768 218.78 330.898 218.075C328.079 215.754 326.752 215.547 315.476 215.588C309.879 215.629 304.697 215.754 303.951 215.961Z" fill="black"/>
<path d="M353.782 299.941C346.444 302.553 344.164 312.086 349.47 318.055C350.341 319.092 351.999 320.377 353.077 320.916C354.86 321.786 355.523 321.869 361.866 321.869C368.167 321.869 368.872 321.786 370.862 320.874C373.515 319.713 376.002 317.102 376.997 314.491C379.112 308.895 375.464 301.268 369.825 299.692C367.462 299.071 355.772 299.237 353.782 299.941Z" fill="black"/>
<path d="M373.349 349.6C369.95 350.843 367.421 353.372 366.177 356.771C364.436 361.745 367.214 368.211 372.147 370.657C373.971 371.569 374.551 371.61 382.387 371.61C390.222 371.61 390.802 371.569 392.626 370.657C396.565 368.709 398.762 365.434 399.094 360.916C399.259 358.429 399.177 357.89 397.974 355.486C396.523 352.501 394.492 350.636 391.714 349.641C389.351 348.812 375.671 348.771 373.349 349.6Z" fill="black"/>
<path d="M358.549 394.16C348.765 397.144 347.563 410.45 356.684 415.134L359.13 416.378H366.592C373.556 416.378 374.261 416.295 376.168 415.424C378.656 414.264 380.687 412.398 381.889 410.16C383.174 407.797 383.174 402.575 381.889 400.17C380.438 397.435 378.863 395.818 376.583 394.782C374.634 393.87 374.054 393.787 367.048 393.828C362.944 393.828 359.13 393.994 358.549 394.16Z" fill="black"/>
<path d="M391.59 473.207C388.522 474.161 385.33 477.435 384.46 480.586C382.926 485.85 385.123 491.114 390.056 494.016C391.88 495.094 392.129 495.135 399.674 495.259C408.878 495.467 410.826 495.052 413.852 492.399C416.257 490.244 417.459 488.006 417.708 484.98C418.122 480.461 415.552 475.86 411.406 473.663C409.872 472.834 409.043 472.751 401.664 472.669C395.404 472.586 393.124 472.71 391.59 473.207Z" fill="black"/>
<path d="M366.011 507.322C361.078 508.855 357.927 513.042 357.969 518.141C358.01 522.7 360.166 526.348 364.104 528.42C366.177 529.54 366.302 529.54 374.51 529.54C381.475 529.54 383.05 529.415 384.377 528.835C388.895 526.804 391.424 523.032 391.383 518.389C391.341 513.664 388.978 509.892 384.874 507.944C382.926 506.99 382.387 506.949 374.925 506.99C370.613 506.99 366.592 507.156 366.011 507.322Z" fill="black"/>
<path d="M407.178 531.778C403.53 532.731 400.13 536.089 399.135 539.861C398.182 543.426 399.757 548.566 402.576 551.136C405.312 553.581 406.597 553.954 412.443 553.954C418.454 553.954 419.698 553.54 422.807 550.638C428.196 545.623 426.952 536.628 420.402 532.731C418.578 531.695 418.081 531.612 413.479 531.529C410.743 531.488 407.924 531.612 407.178 531.778Z" fill="black"/>
</svg>
