<svg width="70" height="63" viewBox="0 0 70 63" fill="none" xmlns="http://www.w3.org/2000/svg">
<path d="M56.7665 3.30418C59.052 5.09605 60.627 7.99033 61.271 11.0211L61.4985 11.1121L68.656 14.4228C69.0558 14.6069 69.3947 14.9013 69.6328 15.2715C69.8709 15.6416 69.9983 16.0721 70 16.5122V59.7934C69.9974 60.153 69.9116 60.507 69.7492 60.8278C69.5869 61.1486 69.3524 61.4274 69.0641 61.6424C68.7759 61.8573 68.4418 62.0026 68.088 62.0668C67.7342 62.131 67.3704 62.1123 67.025 62.0123L47.1835 56.4127L23.5935 62.9152C23.168 63.0328 22.7179 63.028 22.295 62.9012L1.659 56.7592C1.18202 56.6191 0.762964 56.3289 0.464084 55.9317C0.165203 55.5344 0.00244881 55.0514 0 54.5543L0 10.4961C0 8.95626 1.498 7.85034 2.9925 8.28431L22.9495 14.0974L33.0925 10.9931C33.2325 10.9511 33.3748 10.9219 33.5195 10.9056C33.9115 8.60978 35.007 6.40495 36.8445 4.25611C39.025 1.7013 42.8505 0.203415 46.578 0.0249283C50.4455 -0.160558 53.3995 0.66538 56.763 3.30068M4.6655 13.5864V52.836L21.7105 57.9071V18.5455L4.6655 13.5864ZM33.397 15.7352L26.376 17.8806V57.3541L44.1035 52.4755V40.9438C44.1035 39.6699 45.15 38.6375 46.438 38.6375C47.726 38.6375 48.769 39.6699 48.769 40.9473V52.066L65.3345 56.7382V17.9786L61.4145 16.1587C61.3492 16.5437 61.264 16.9205 61.159 17.2891C60.4008 19.9737 59.1237 22.4837 57.4 24.6771L48.7305 35.5018C48.5022 35.7864 48.2107 36.0138 47.8791 36.166C47.5475 36.3181 47.1849 36.3908 46.8203 36.3782C46.4557 36.3656 46.099 36.2682 45.7786 36.0935C45.4583 35.9189 45.1831 35.6719 44.975 35.3723L36.8725 23.6377C35.5332 21.7735 34.5987 20.0983 34.069 18.612C33.736 17.6819 33.5105 16.7167 33.397 15.7352ZM46.802 4.63758C44.261 4.76007 41.65 5.782 40.4075 7.23439C38.913 8.98425 38.178 10.6221 38.031 12.281C37.856 14.2794 37.975 15.6898 38.472 17.0861C38.8395 18.1186 39.571 19.4275 40.7015 21.0058L47.04 30.1822L53.725 21.8353C55.0746 20.1124 56.0745 18.1425 56.6685 16.0362C57.5085 13.0964 56.2415 8.77777 53.8685 6.92291C51.436 5.01555 49.5985 4.50109 46.8055 4.63758M47.2885 7.0769C51.1525 7.0769 54.2885 10.1742 54.2885 13.9959C54.2765 15.8412 53.5325 17.6062 52.2201 18.9035C50.9076 20.2008 49.1339 20.9242 47.2885 20.9149C43.4245 20.9149 40.2885 17.8176 40.2885 13.9959C40.2885 10.1742 43.4245 7.0769 47.2885 7.0769ZM47.2885 11.6896C46.9838 11.6877 46.6817 11.7459 46.3994 11.8608C46.1172 11.9757 45.8603 12.1451 45.6435 12.3592C45.4268 12.5734 45.2543 12.8282 45.136 13.109C45.0177 13.3898 44.9558 13.6912 44.954 13.9959C44.954 15.2698 46.0005 16.3022 47.2885 16.3022C47.5932 16.3036 47.8953 16.2449 48.1773 16.1296C48.4594 16.0143 48.716 15.8445 48.9324 15.63C49.1489 15.4155 49.321 15.1605 49.4389 14.8795C49.5567 14.5985 49.6181 14.2971 49.6195 13.9924C49.6149 13.3782 49.3669 12.7909 48.93 12.3593C48.493 11.9276 47.9027 11.6868 47.2885 11.6896Z" fill="#327DC3"/>
</svg>
