<svg width="51" height="51" viewBox="0 0 51 51" fill="none" xmlns="http://www.w3.org/2000/svg">
<path fill-rule="evenodd" clip-rule="evenodd" d="M45.3125 25.375C45.3125 30.6628 43.2119 35.7339 39.4729 39.4729C35.7339 43.2119 30.6628 45.3125 25.375 45.3125C20.0872 45.3125 15.0161 43.2119 11.2771 39.4729C7.53805 35.7339 5.4375 30.6628 5.4375 25.375C5.4375 20.0872 7.53805 15.0161 11.2771 11.2771C15.0161 7.53805 20.0872 5.4375 25.375 5.4375C30.6628 5.4375 35.7339 7.53805 39.4729 11.2771C43.2119 15.0161 45.3125 20.0872 45.3125 25.375ZM50.75 25.375C50.75 32.1049 48.0766 38.5591 43.3178 43.3178C38.5591 48.0766 32.1049 50.75 25.375 50.75C18.6451 50.75 12.1909 48.0766 7.43217 43.3178C2.67343 38.5591 0 32.1049 0 25.375C0 18.6451 2.67343 12.1909 7.43217 7.43217C12.1909 2.67343 18.6451 0 25.375 0C32.1049 0 38.5591 2.67343 43.3178 7.43217C48.0766 12.1909 50.75 18.6451 50.75 25.375ZM30.1962 35.6519C30.3445 35.9891 30.5597 36.2926 30.8288 36.5441C31.098 36.7956 31.4154 36.9898 31.7619 37.1149C32.1083 37.24 32.4766 37.2934 32.8443 37.2718C33.212 37.2502 33.5715 37.1542 33.901 36.9894C34.2304 36.8247 34.523 36.5948 34.7609 36.3135C34.9988 36.0323 35.177 35.7057 35.2848 35.3534C35.3926 35.0012 35.4277 34.6308 35.388 34.2646C35.3483 33.8984 35.2346 33.544 35.0538 33.2231C33.5965 30.2905 29.7939 28.0938 25.375 28.0938C20.9561 28.0938 17.1571 30.2905 15.6962 33.2231C15.5154 33.544 15.4017 33.8984 15.362 34.2646C15.3223 34.6308 15.3574 35.0012 15.4652 35.3534C15.573 35.7057 15.7512 36.0323 15.9891 36.3135C16.227 36.5948 16.5196 36.8247 16.849 36.9894C17.1785 37.1542 17.538 37.2502 17.9057 37.2718C18.2734 37.2934 18.6417 37.24 18.9881 37.1149C19.3346 36.9898 19.652 36.7956 19.9212 36.5441C20.1903 36.2926 20.4055 35.9891 20.5538 35.6519C20.9054 34.9595 22.5402 33.5312 25.375 33.5312C28.2098 33.5312 29.8446 34.9595 30.1962 35.6519ZM32.625 25.375C31.9039 25.375 31.2124 25.0886 30.7026 24.5787C30.1927 24.0688 29.9062 23.3773 29.9062 22.6562V19.0312C29.9062 18.3102 30.1927 17.6187 30.7026 17.1088C31.2124 16.5989 31.9039 16.3125 32.625 16.3125C33.3461 16.3125 34.0376 16.5989 34.5474 17.1088C35.0573 17.6187 35.3438 18.3102 35.3438 19.0312V22.6562C35.3438 23.3773 35.0573 24.0688 34.5474 24.5787C34.0376 25.0886 33.3461 25.375 32.625 25.375ZM15.4062 22.6562C15.4063 23.3773 15.6927 24.0688 16.2026 24.5787C16.7124 25.0886 17.4039 25.375 18.125 25.375C18.8461 25.375 19.5376 25.0886 20.0474 24.5787C20.5573 24.0688 20.8437 23.3773 20.8438 22.6562V19.0312C20.8437 18.3102 20.5573 17.6187 20.0474 17.1088C19.5376 16.5989 18.8461 16.3125 18.125 16.3125C17.4039 16.3125 16.7124 16.5989 16.2026 17.1088C15.6927 17.6187 15.4063 18.3102 15.4062 19.0312V22.6562Z" fill="black"/>
</svg>
