<svg width="219" height="219" viewBox="0 0 219 219" fill="none" xmlns="http://www.w3.org/2000/svg">
<path d="M208.597 31.3102H219V41.7127H208.597V31.3102ZM208.597 104.265H187.724V114.735H198.127V146.011H177.253V135.609H166.851V156.414H198.127V187.758H208.597V156.414H219V146.011H208.597V104.265ZM208.597 62.5861H198.127V72.9886H187.724V83.4596H198.127V93.8621H208.597V83.4596H219V72.9886H208.597V62.5861Z" fill="black"/>
<path d="M177.253 114.735H187.724V135.609H177.253V114.735ZM166.851 41.7127H177.253V52.1836H166.851V41.7127ZM156.448 83.4595H166.851V104.265H156.448V83.4595ZM83.4253 177.287V125.138H73.0229V156.414H62.5519V166.885H52.1494V187.758H62.5519V198.161H156.448V187.758H166.851V166.885H156.448V156.414H145.977V125.138H135.575V177.287H83.4253ZM145.977 104.265H156.448V114.735H145.977V104.265ZM145.977 72.9886H156.448V83.4595H145.977V72.9886ZM135.575 20.8392H145.977V31.3102H135.575V20.8392ZM125.172 114.735H135.575V125.138H125.172V114.735ZM125.172 72.9886H135.575V83.4595H125.172V72.9886Z" fill="black"/>
<path d="M114.701 135.609H125.172V146.011H114.701V135.609ZM93.8278 156.414H125.172V166.885H93.8278V156.414ZM93.8278 104.265H125.172V114.735H93.8278V104.265ZM93.8278 135.609H104.299V146.011H93.8278V135.609ZM93.8278 52.1836V62.5861H83.4253V72.9886H93.8278V83.4595H104.299V72.9886H114.701V62.5861H104.299V52.1836H93.8278ZM83.4253 114.735H93.8278V125.138H83.4253V114.735ZM62.5519 83.4595H83.4253V93.8621H62.5519V83.4595ZM62.5519 104.265H73.0228V114.735H62.5519V104.265ZM62.5519 20.8392H73.0228V31.3102H62.5519V20.8392ZM52.1494 93.8621H62.5519V104.265H52.1494V93.8621ZM20.8734 104.265V114.735H31.2759V146.011H10.4025V135.609H0V156.414H31.2759V177.287H41.7469V156.414H52.1494V146.011H41.7469V104.265H20.8734ZM41.7469 62.5861H52.1494V72.9886H41.7469V62.5861Z" fill="black"/>
<path d="M10.4025 114.735H20.8734V135.609H10.4025V114.735ZM10.4025 31.3102V41.7127H0V52.1836H10.4025V62.5861H20.8734V52.1836H31.2759V41.7127H20.8734V31.3102H10.4025Z" fill="black"/>
</svg>
